<svg xmlns="http://www.w3.org/2000/svg" width="3173.663" height="2000.591" viewBox="0 0 3173.663 2000.591"><path d="M1155.875,1988.321l-.6-690.274H763.065c-171.646,0-332.936-68.206-454.231-192C187.659,982.252,121,817.749,121,642.889c0-174.979,66.659-339.364,187.834-463.039C430.129,55.936,591.419-12.27,763.065-12.27H2652.6c171.646,0,332.936,68.206,454.23,192.12C3228,303.525,3294.663,468.029,3294.663,642.889s-66.777,339.364-187.834,463.039c-121.294,123.794-282.584,192-454.23,192H1851.624l-695.749,690.393ZM757.114,35.343C600.585,36.891,453.7,99.859,342.878,213.06,230.51,327.927,168.613,480.527,168.613,642.889s61.9,314.962,174.265,429.71c112.248,114.629,261.516,177.717,420.187,177.717h439.828l.476,623.734,628.614-623.734H2652.6c158.671,0,307.939-63.088,420.187-177.717,112.367-114.748,174.265-267.349,174.265-429.71s-61.9-314.962-174.265-429.71C2960.537,98.55,2811.269,35.462,2652.6,35.462L757.114,35.343Z" transform="translate(-121 12.27)" fill="#f16856"/></svg>