<svg xmlns="http://www.w3.org/2000/svg" width="87.752" height="104.383" viewBox="0 0 87.752 104.383"><path d="M196.6,141.71v8.427h66.955V141.71Z" transform="translate(-188.799 -45.754)" fill="#f16856"/><path d="M189.566,117.986v4.91l-4.018-4.91H184v8.08h1.845v-4.91l4.031,4.91h1.535v-8.08Zm5.987,6.582V122.7h3.752v-1.455h-3.752v-1.758H199.8v-1.5h-6.1v8.08h6.26v-1.5h-4.4Zm6.309,1.5h3.672c2.644,0,4.458-1.591,4.458-4.043s-1.814-4.043-4.458-4.043h-3.672v8.086Zm1.876-1.536v-5.009h1.709a2.512,2.512,0,1,1,0,5.015h-1.709Zm9.888.031V122.7h3.752v-1.455h-3.752v-1.758h4.247v-1.5h-6.111v8.08h6.26v-1.5h-4.4Zm13.473,1.5-1.814-2.6a2.622,2.622,0,0,0,1.659-2.551c0-1.814-1.35-2.935-3.511-2.935h-3.5v8.08h1.87v-2.254h1.721l1.56,2.254H227.1Zm-2.043-5.151c0,.879-.576,1.405-1.721,1.405h-1.523v-2.817h1.523c1.139.006,1.721.52,1.721,1.412Zm3.74,5.151h5.925v-1.523h-4.049v-6.557H228.8v8.08Zm13.838,0H244.6l-3.616-8.08h-1.845l-3.6,8.08h1.919l.718-1.734h3.752l.712,1.734Zm-3.87-3.151,1.282-3.1,1.282,3.1Zm12.625-4.935v4.91l-4.018-4.91h-1.548v8.08h1.845v-4.91l4.031,4.91h1.535v-8.08Zm4.124,8.086h3.672c2.644,0,4.458-1.591,4.458-4.043s-1.814-4.043-4.458-4.043h-3.672v8.086Zm1.87-1.536v-5.009h1.709a2.512,2.512,0,1,1,0,5.015h-1.709Zm10.668,1.672c2.309,0,3.43-1.152,3.43-2.508,0-2.966-4.7-1.938-4.7-3.43,0-.508.427-.923,1.536-.923a4.563,4.563,0,0,1,2.241.638l.576-1.418a5.445,5.445,0,0,0-2.8-.718c-2.3,0-3.405,1.145-3.405,2.52,0,3,4.7,1.963,4.7,3.473,0,.5-.452.867-1.56.867a4.761,4.761,0,0,1-2.669-.842l-.632,1.405a5.718,5.718,0,0,0,3.288.935Z" transform="translate(-184 -36.667)" fill="#37008e"/><path d="M189.541,100.842v3.189H185.87v-3.189H184v8.08h1.87V105.61h3.672v3.312h1.87v-8.08Zm7.653,8.222a3.348,3.348,0,0,0,3.659-3.7v-4.526h-1.845V105.3c0,1.536-.656,2.173-1.8,2.173s-1.8-.638-1.8-2.173v-4.458h-1.87v4.526a3.348,3.348,0,0,0,3.659,3.7Zm5.789-.142h1.87v-8.08h-1.87v8.08Zm6.774.142c2.309,0,3.43-1.152,3.43-2.508,0-2.966-4.7-1.938-4.7-3.43,0-.508.427-.923,1.535-.923a4.553,4.553,0,0,1,2.241.632l.576-1.418a5.445,5.445,0,0,0-2.8-.718c-2.3,0-3.405,1.145-3.405,2.52,0,3,4.7,1.963,4.7,3.473,0,.5-.452.867-1.56.867a4.761,4.761,0,0,1-2.669-.842l-.638,1.405a5.77,5.77,0,0,0,3.294.941Zm14.024-8.222-2.5,5.77-2.458-5.77h-2.018l3.486,8.08h1.845l3.5-8.08Zm8.315,8.08h1.963l-3.616-8.08H228.6l-3.6,8.08h1.919l.718-1.734h3.752l.712,1.734Zm-3.864-3.151,1.282-3.1,1.282,3.1Zm12.525-4.928v4.9l-4.018-4.9h-1.548v8.08h1.845v-4.91l4.031,4.91H242.6v-8.08Zm12.711,0v3.189H249.8v-3.189h-1.87v8.08h1.87V105.61h3.672v3.312h1.87v-8.08Zm5.919,6.582v-1.87h3.752V104.1h-3.752v-1.752h4.247v-1.5h-6.1v8.08h6.26v-1.5h-4.4Zm7.907,1.5h1.87v-6.557h2.588v-1.523h-7.046v1.523h2.588v6.557Z" transform="translate(-184 -30.135)" fill="#37008e"/><path d="M241.466,8.456h-14.99V-13.27H211.53A14.945,14.945,0,0,0,196.59,1.67V36.7a14.94,14.94,0,0,0,29.88-.006V27.724h-7.486L241.466,8.456Z" transform="translate(-188.795 13.27)" fill="#f16856"/><path d="M274.228-13.27H250.62a3.258,3.258,0,0,0-3.108,3.387V8.456h7.733L232.77,27.718h14.742V48.243a3.258,3.258,0,0,0,3.108,3.387h23.6a3.258,3.258,0,0,0,3.108-3.387V-9.883a3.257,3.257,0,0,0-3.1-3.387Z" transform="translate(-202.574 13.27)" fill="#37008e"/></svg>