<svg xmlns="http://www.w3.org/2000/svg" xmlns:xlink="http://www.w3.org/1999/xlink" version="1.1" x="0px" y="0px" viewBox="0 0 48 60" enable-background="new 0 0 48 48" xml:space="preserve"><g><path d="M44.7070313,43.2929688L32.6885986,31.2745361C35.3609619,28.2703857,37,24.3276978,37,20c0-9.3740234-7.6259766-17-17-17   S3,10.6259766,3,20s7.6259766,17,17,17c4.3276978,0,8.2703857-1.6390381,11.2745361-4.3114014l12.0184326,12.0184326   C43.4882813,44.9023438,43.7441406,45,44,45s0.5117188-0.0976563,0.7070313-0.2929688   C45.0976563,44.3164063,45.0976563,43.6835938,44.7070313,43.2929688z M20,35c-8.2709961,0-15-6.7285156-15-15S11.7290039,5,20,5   c8.2714844,0,15,6.7285156,15,15S28.2714844,35,20,35z"/></g><text x="0" y="63" fill="#000000" font-size="5px" font-weight="bold" font-family="'Helvetica Neue', Helvetica, Arial-Unicode, Arial, Sans-serif">Created by yanuar rizki</text><text x="0" y="68" fill="#000000" font-size="5px" font-weight="bold" font-family="'Helvetica Neue', Helvetica, Arial-Unicode, Arial, Sans-serif">from the Noun Project</text></svg>