<svg xmlns="http://www.w3.org/2000/svg" width="121.898" height="145" viewBox="0 0 121.898 145"><path d="M289.608,153.416V141.71H196.6v11.706Zm-62.656-4.825c0,1.067-.851,1.686-2.477,1.686h-3.2v-6.193H224.3c1.548,0,2.339.645,2.339,1.608a1.473,1.473,0,0,1-.826,1.359,1.543,1.543,0,0,1,1.135,1.54Zm5.461-.3,1.385,1.987h-1.54l-1.2-1.729h-1.316v1.729h-1.436v-6.193h2.683c1.651,0,2.692.86,2.692,2.245a2.022,2.022,0,0,1-1.273,1.961Zm8.171-.74a2.8,2.8,0,1,1-5.608,0v-3.466H236.4V147.5c0,1.178.516,1.66,1.376,1.66.877,0,1.385-.49,1.385-1.66v-3.415h1.411v3.466Zm2.735-1.712c0,1.144,3.6.353,3.6,2.623,0,1.032-.86,1.918-2.623,1.918a4.442,4.442,0,0,1-2.52-.714l.482-1.075a3.662,3.662,0,0,0,2.047.645c.851,0,1.2-.284,1.2-.662,0-1.161-3.6-.361-3.6-2.658,0-1.058.851-1.927,2.606-1.927a4.163,4.163,0,0,1,2.15.55l-.439,1.084a3.521,3.521,0,0,0-1.72-.49c-.843-.009-1.178.31-1.178.705Zm5.943,0c0,1.144,3.6.353,3.6,2.623,0,1.032-.86,1.918-2.623,1.918a4.442,4.442,0,0,1-2.52-.714l.49-1.075a3.662,3.662,0,0,0,2.047.645c.851,0,1.2-.284,1.2-.662,0-1.161-3.6-.361-3.6-2.658,0-1.058.851-1.927,2.606-1.927a4.163,4.163,0,0,1,2.15.55l-.439,1.084a3.515,3.515,0,0,0-1.712-.49c-.869-.009-1.2.31-1.2.705Zm9.684,4.438h-4.791v-6.193h4.679v1.152h-3.251v1.342h2.873v1.109h-2.873v1.436h3.372v1.153Zm5.995,0H260.4v-6.193h1.436v5.023h3.1v1.17Zm-32.709-3.948c0-.679-.439-1.084-1.316-1.084h-1.17V147.4h1.17c.877.009,1.316-.4,1.316-1.075Zm-6.726,2.107c0-.525-.4-.774-1.144-.774h-1.669v1.531h1.669c.748.009,1.144-.224,1.144-.757Zm-.31-2.546c0-.49-.378-.722-1.084-.722h-1.428v1.462h1.428c.705-.009,1.084-.258,1.084-.74Z" transform="translate(-185.763 -8.416)" fill="#fff"/><path d="M191.732,118.039v6.82l-5.582-6.82H184v11.224h2.563v-6.82l5.6,6.82H194.3V118.039h-2.563Zm8.317,9.143v-2.6h5.212v-2.021h-5.212v-2.443h5.9v-2.081h-8.48v11.224h8.7v-2.09h-6.115Zm8.764,2.09h5.1c3.673,0,6.193-2.21,6.193-5.616s-2.52-5.616-6.193-5.616h-5.1v11.233Zm2.606-2.133v-6.958h2.374a3.489,3.489,0,1,1,0,6.967h-2.374Zm13.735.043v-2.6h5.212v-2.021h-5.212v-2.443h5.9v-2.081h-8.489v11.224h8.7v-2.09h-6.107Zm18.715,2.09-2.52-3.612a3.642,3.642,0,0,0,2.3-3.544c0-2.52-1.875-4.077-4.877-4.077h-4.859v11.224h2.6v-3.131h2.391l2.167,3.131h2.8Zm-2.838-7.156c0,1.221-.8,1.952-2.391,1.952h-2.116v-3.913h2.116c1.583.009,2.391.722,2.391,1.961Zm5.195,7.156h8.231v-2.116h-5.625v-9.108h-2.6v11.224Zm19.223,0h2.726l-5.023-11.224H260.59l-5.006,11.224h2.666l1-2.408h5.212l.989,2.408Zm-5.375-4.378,1.78-4.3,1.78,4.3Zm17.537-6.855v6.82l-5.582-6.82h-2.15v11.224h2.563v-6.82l5.6,6.82h2.133V118.039h-2.563Zm5.728,11.233h5.1c3.673,0,6.193-2.21,6.193-5.616s-2.52-5.616-6.193-5.616h-5.1v11.233Zm2.6-2.133v-6.958h2.374a3.489,3.489,0,1,1,0,6.967h-2.374Zm14.819,2.322c3.208,0,4.765-1.6,4.765-3.483,0-4.12-6.528-2.692-6.528-4.765,0-.705.593-1.282,2.133-1.282a6.34,6.34,0,0,1,3.113.886l.8-1.97a7.564,7.564,0,0,0-3.9-1c-3.191,0-4.73,1.591-4.73,3.5,0,4.171,6.528,2.726,6.528,4.825,0,.688-.628,1.2-2.167,1.2a6.614,6.614,0,0,1-3.707-1.17l-.877,1.952a7.944,7.944,0,0,0,4.567,1.3Z" transform="translate(-184 -5.077)" fill="#fff"/><path d="M191.7,100.9v4.429h-5.1V100.9H184v11.224h2.6v-4.6h5.1v4.6h2.6V100.9Zm10.631,11.422c3.191,0,5.083-1.832,5.083-5.135V100.9h-2.563v6.193c0,2.133-.912,3.019-2.5,3.019-1.574,0-2.5-.886-2.5-3.019V100.9h-2.6v6.287c0,3.3,1.892,5.135,5.083,5.135Zm8.042-.2h2.6V100.9h-2.6v11.224Zm9.409.2c3.208,0,4.765-1.6,4.765-3.483,0-4.12-6.528-2.692-6.528-4.765,0-.705.593-1.282,2.133-1.282a6.325,6.325,0,0,1,3.113.877l.8-1.97a7.564,7.564,0,0,0-3.9-1c-3.191,0-4.73,1.591-4.73,3.5,0,4.171,6.528,2.726,6.528,4.825,0,.688-.628,1.2-2.167,1.2a6.614,6.614,0,0,1-3.707-1.17l-.886,1.952a8.015,8.015,0,0,0,4.576,1.307ZM239.26,100.9l-3.466,8.016-3.414-8.016h-2.8l4.842,11.224h2.563L241.84,100.9Zm11.551,11.224h2.726L248.514,100.9h-2.563l-5.006,11.224h2.666l1-2.408h5.212l.989,2.408Zm-5.367-4.378,1.78-4.3,1.78,4.3Zm17.4-6.846v6.812l-5.582-6.812h-2.15v11.224h2.563V105.3l5.6,6.82h2.133V100.9Zm17.657,0v4.429h-5.1V100.9h-2.6v11.224h2.6v-4.6h5.1v4.6h2.6V100.9Zm8.222,9.143v-2.6h5.212v-2.021h-5.212v-2.434h5.9v-2.081h-8.48V112.13h8.7v-2.081h-6.115Zm10.983,2.081h2.6v-9.108h3.6V100.9h-9.788v2.116h3.6v9.108Z" transform="translate(-184 -2.677)" fill="#fff"/><path d="M285.291-13.27H252.5a4.52,4.52,0,0,0-4.318,4.7V16.91h-10.08V-13.27H217.354A20.772,20.772,0,0,0,196.6,7.484V56.138a20.754,20.754,0,0,0,41.507,0V43.676h10.08V72.187a4.526,4.526,0,0,0,4.318,4.7h32.786a4.526,4.526,0,0,0,4.318-4.7V-8.557a4.528,4.528,0,0,0-4.318-4.713ZM227.709,43.676h8.085V56.138a18.436,18.436,0,0,1-36.871,0V7.484a18.448,18.448,0,0,1,18.431-18.431h18.431v30.18l20.332.017L227.709,43.676Z" transform="translate(-185.763 13.27)" fill="#fff"/></svg>